<svg width="244" height="55" viewBox="0 0 244 55" fill="none" xmlns="http://www.w3.org/2000/svg">
<g clip-path="url(#clip0_207_10681)">
<path d="M141.622 27.4398C140.875 25.5821 139.672 23.9374 138.122 22.6544C135.187 20.4163 131.585 19.2026 127.879 19.2026C124.173 19.2026 120.572 20.4163 117.637 22.6544C117.46 22.8152 117.307 22.9796 117.14 23.144C116.972 22.9796 116.817 22.8152 116.635 22.6544C113.776 20.2924 110.134 19.0626 106.411 19.2026C102.678 19.0599 99.0233 20.2895 96.1526 22.6544C94.6218 23.9406 93.4416 25.5859 92.72 27.4398C91.9897 29.7205 91.6424 32.1042 91.6922 34.4961V54.1787H94.2406C94.9507 54.1797 95.6539 54.0424 96.3103 53.7746C96.9666 53.5067 97.5632 53.1136 98.0658 52.6176C98.5685 52.1217 98.9674 51.5327 99.2398 50.8842C99.5123 50.2358 99.6528 49.5406 99.6535 48.8384V34.6651C99.6535 29.0322 101.906 26.2169 106.411 26.2192C110.918 26.2192 113.17 29.0345 113.168 34.6651V54.1787H115.716C116.427 54.1799 117.13 54.0426 117.786 53.7748C118.443 53.507 119.039 53.1139 119.542 52.618C120.045 52.122 120.444 51.533 120.717 50.8845C120.989 50.2359 121.13 49.5407 121.13 48.8384V47.2075H121.139V34.6651C121.139 29.0322 123.391 26.2169 127.895 26.2192C132.399 26.2192 134.652 29.0345 134.652 34.6651V54.1787H137.202C137.912 54.1797 138.615 54.0424 139.271 53.7746C139.928 53.5067 140.524 53.1136 141.027 52.6176C141.529 52.1217 141.928 51.5327 142.201 50.8842C142.473 50.2358 142.614 49.5406 142.614 48.8384V34.4958C142.727 32.1032 142.39 29.7111 141.622 27.4398Z" fill="white"/>
<path d="M83.4619 19.2006C82.7518 19.1994 82.0485 19.3366 81.3921 19.6043C80.7357 19.872 80.1391 20.265 79.6363 20.7608C79.1336 21.2566 78.7345 21.8456 78.4619 22.494C78.1894 23.1424 78.0487 23.8375 78.0478 24.5397V38.713C78.0478 44.3459 75.7956 47.1612 71.2912 47.1589C66.7872 47.1589 64.5346 44.3436 64.5334 38.713V34.4953C64.6471 32.1025 64.3114 29.7096 63.5433 27.4378C62.7944 25.5806 61.5911 23.9362 60.0412 22.6524C57.1813 20.2911 53.5383 19.0613 49.8155 19.2006C46.0818 19.0582 42.427 20.2878 39.5556 22.6524C38.0268 23.9402 36.8474 25.585 36.1242 27.4378C35.3945 29.7191 35.0473 32.1031 35.0964 34.4953V54.1767H37.9725C39.3201 54.1784 40.6131 53.6505 41.5672 52.7094C42.5213 51.7682 43.0582 50.4908 43.06 49.1581V34.6643C43.06 29.0298 45.3118 26.2145 49.8155 26.2184C54.3101 26.2184 56.5623 29.0193 56.5721 34.6212V38.882C56.5211 41.2743 56.8684 43.6586 57.6 45.9395C58.321 47.7927 59.5003 49.4376 61.0302 50.7237C63.9012 53.0898 67.5568 54.32 71.2912 54.1767C75.0142 54.3153 78.6571 53.0852 81.5169 50.7237C83.0665 49.4405 84.2691 47.7965 85.0166 45.9395C85.785 43.6677 86.1219 41.275 86.0103 38.882V19.2006H83.4619Z" fill="white"/>
<path d="M25.8814 19.1758C25.3036 19.1752 24.7314 19.2871 24.1974 19.5053C23.6635 19.7234 23.1782 20.0435 22.7693 20.4472C22.3605 20.8509 22.036 21.3303 21.8146 21.858C21.5932 22.3858 21.479 22.9515 21.4787 23.5229V38.7138C21.4787 44.3468 19.2246 47.1621 14.7162 47.1597C10.2134 47.1597 7.96116 44.3444 7.95959 38.7138V23.545C7.95897 22.9739 7.84459 22.4085 7.62299 21.8811C7.40138 21.3537 7.0769 20.8747 6.66806 20.4713C6.25922 20.0679 5.77404 19.7482 5.24022 19.5303C4.70641 19.3124 4.13443 19.2007 3.55694 19.2014H0.00181006V38.8829C-0.111023 41.2752 0.224269 43.6674 0.990786 45.9392C1.73933 47.7966 2.94273 49.441 4.49287 50.7246C7.3518 53.086 10.994 54.3162 14.7162 54.1776C18.4506 54.321 22.1063 53.0908 24.9773 50.7246C26.5088 49.4391 27.6891 47.7935 28.4098 45.9392C29.1415 43.6588 29.4887 41.2748 29.4377 38.8829V19.1758H25.8814Z" fill="white"/>
<path d="M76.8853 5.06173C76.8785 4.39721 77.0102 3.73843 77.2722 3.12648C77.5342 2.51454 77.921 1.96257 78.4083 1.50501C78.888 1.02803 79.4583 0.649525 80.0864 0.391243C80.7145 0.132962 81.3881 0 82.0683 0C82.7485 0 83.4221 0.132962 84.0502 0.391243C84.6783 0.649525 85.2486 1.02803 85.7283 1.50501C86.2219 1.96531 86.6127 2.52265 86.8754 3.14122C87.1382 3.75978 87.2672 4.42588 87.2541 5.0967C87.2646 5.77333 87.1347 6.44491 86.8724 7.06991C86.61 7.69491 86.2208 8.26004 85.7288 8.73036C85.2599 9.21582 84.6941 9.59958 84.0673 9.85726C83.4405 10.1149 82.7663 10.2409 82.0876 10.2272C81.4036 10.239 80.7244 10.1123 80.0917 9.85486C79.4591 9.59745 78.8863 9.21477 78.4087 8.73036C77.9143 8.25468 77.5239 7.68358 77.2619 7.05249C77 6.4214 76.8715 5.74379 76.8853 5.06173Z" fill="white"/>
<path d="M240.212 19.2012C239.502 19.2 238.799 19.3372 238.142 19.6049C237.486 19.8726 236.889 20.2656 236.386 20.7614C235.884 21.2573 235.484 21.8462 235.212 22.4946C234.939 23.143 234.799 23.8381 234.798 24.5403V38.7136C234.798 44.3465 232.546 47.1618 228.041 47.1595C223.537 47.1595 221.286 44.3442 221.287 38.7136V34.4959C221.399 32.1029 221.062 29.71 220.293 27.4384C219.545 25.5807 218.342 23.9362 216.791 22.653C213.856 20.415 210.255 19.2012 206.549 19.2012C202.843 19.2012 199.242 20.415 196.307 22.653C194.777 23.9392 193.597 25.5846 192.877 27.4384C192.145 29.7192 191.797 32.1035 191.849 34.4959V54.1773H194.397C195.831 54.1793 197.207 53.6179 198.222 52.6166C199.238 51.6154 199.809 50.2562 199.811 48.8382V34.6649C199.811 29.0304 202.063 26.2151 206.568 26.219C211.061 26.219 213.313 29.02 213.324 34.6218V38.8826C213.273 41.2747 213.619 43.6589 214.349 45.9401C215.07 47.7937 216.25 49.4386 217.78 50.7244C220.715 52.9631 224.317 54.1773 228.024 54.1773C231.73 54.1773 235.332 52.9631 238.267 50.7244C239.817 49.4415 241.02 47.7974 241.768 45.9401C242.536 43.6683 242.872 41.2754 242.758 38.8826V19.2012H240.212Z" fill="white"/>
<path d="M233.636 5.06173C233.629 4.39744 233.761 3.73888 234.022 3.127C234.284 2.51513 234.67 1.96302 235.156 1.50501C235.636 1.02801 236.207 0.649506 236.835 0.391231C237.464 0.132956 238.138 0 238.818 0C239.499 0 240.172 0.132956 240.801 0.391231C241.429 0.649506 242 1.02801 242.48 1.50501C242.972 1.96603 243.362 2.5236 243.624 3.14206C243.886 3.76053 244.015 4.42626 244.002 5.0967C244.012 5.773 243.882 6.44425 243.621 7.06914C243.359 7.69404 242.971 8.25937 242.48 8.73036C242.011 9.2154 241.444 9.59887 240.818 9.85651C240.191 10.1141 239.516 10.2404 238.838 10.2272C238.153 10.2392 237.474 10.1126 236.841 9.85521C236.207 9.59779 235.634 9.21499 235.156 8.73036C234.663 8.25424 234.273 7.683 234.011 7.05198C233.75 6.42096 233.622 5.74357 233.636 5.06173Z" fill="white"/>
<path d="M148.851 35.9579C148.814 33.6165 149.269 31.293 150.189 29.1352C151.108 26.9773 152.472 25.0322 154.192 23.4237C157.712 20.1042 162.392 18.2552 167.255 18.2617C172.119 18.2683 176.793 20.1297 180.304 23.4586C182.029 25.1137 183.39 27.1023 184.302 29.3005C185.215 31.4988 185.66 33.8595 185.61 36.2353C185.666 38.6208 185.22 40.9918 184.3 43.1977C183.38 45.4036 182.006 47.3963 180.266 49.0493C178.523 50.7301 176.457 52.0496 174.19 52.9302C171.924 53.8108 169.502 54.2349 167.068 54.1775C164.656 54.2364 162.258 53.8016 160.023 52.9005C157.789 51.9993 155.768 50.6513 154.085 48.9409C152.362 47.2457 151.008 45.219 150.108 42.9859C149.207 40.7528 148.78 38.3608 148.851 35.9579ZM156.988 36.0919C156.825 39.0323 157.814 41.9219 159.749 44.1601C161.747 46.0783 164.421 47.1537 167.206 47.1596C169.991 47.1655 172.669 46.1013 174.676 44.1916C176.615 42.0117 177.618 39.1692 177.47 36.2691C177.616 33.3693 176.614 30.5274 174.676 28.3467C172.692 26.4226 170.024 25.3448 167.246 25.3448C164.467 25.3448 161.8 26.4226 159.816 28.3467C157.888 30.4645 156.873 33.2441 156.988 36.0919Z" fill="white"/>
<path d="M64.5346 38.7132V34.4941C64.6483 32.1017 64.3125 29.7092 63.5445 27.4378C62.7959 25.5801 61.592 23.9356 60.0412 22.6524C57.1815 20.2908 53.5384 19.0611 49.8155 19.2006C46.0822 19.0582 42.4277 20.2879 39.5568 22.6524C38.0271 23.9395 36.8471 25.5846 36.1243 27.4378C35.3944 29.7186 35.0472 32.1023 35.0964 34.4941C35.0964 34.4941 38.8613 26.2172 49.8155 26.2172C54.3113 26.2172 56.5635 29.0182 56.5721 34.62V38.882C56.5215 41.274 56.8691 43.6579 57.6012 45.9383C58.3217 47.7919 59.5006 49.4372 61.0302 50.7237C63.9017 53.089 67.557 54.319 71.2912 54.1767C64.5346 51.0746 64.5346 44.3461 64.5346 38.7132Z" fill="#00A7E0"/>
</g>
<defs>
<clipPath id="clip0_207_10681">
<rect width="244" height="54.1776" fill="white"/>
</clipPath>
</defs>
</svg>
